<svg width="20" height="20" viewBox="0 0 20 20" fill="none" xmlns="http://www.w3.org/2000/svg">
<path d="M12.4998 18.9584H7.49984C2.97484 18.9584 1.0415 17.025 1.0415 12.5V7.50002C1.0415 2.97502 2.97484 1.04169 7.49984 1.04169H12.4998C17.0248 1.04169 18.9582 2.97502 18.9582 7.50002V12.5C18.9582 17.025 17.0248 18.9584 12.4998 18.9584ZM7.49984 2.29169C3.65817 2.29169 2.2915 3.65835 2.2915 7.50002V12.5C2.2915 16.3417 3.65817 17.7084 7.49984 17.7084H12.4998C16.3415 17.7084 17.7082 16.3417 17.7082 12.5V7.50002C17.7082 3.65835 16.3415 2.29169 12.4998 2.29169H7.49984Z" fill="#556977"/>
<path d="M11.5997 13.4416H7.49967C7.15801 13.4416 6.87467 13.1583 6.87467 12.8166C6.87467 12.475 7.15801 12.1916 7.49967 12.1916H11.5997C12.6663 12.1916 13.5413 11.325 13.5413 10.25C13.5413 9.17496 12.6747 8.30829 11.5997 8.30829H5.95801C5.61634 8.30829 5.33301 8.02496 5.33301 7.68329C5.33301 7.34162 5.61634 7.05829 5.95801 7.05829H11.5997C13.358 7.05829 14.7913 8.49162 14.7913 10.25C14.7913 12.0083 13.358 13.4416 11.5997 13.4416Z" fill="#556977"/>
<path d="M7.1417 9.59999C6.98336 9.59999 6.82503 9.54167 6.70003 9.41667L5.3917 8.10833C5.15003 7.86667 5.15003 7.46666 5.3917 7.225L6.70003 5.91666C6.9417 5.675 7.3417 5.675 7.58336 5.91666C7.82503 6.15833 7.82503 6.55833 7.58336 6.8L6.7167 7.66666L7.58336 8.53333C7.82503 8.77499 7.82503 9.175 7.58336 9.41667C7.4667 9.53333 7.30836 9.59999 7.1417 9.59999Z" fill="#556977"/>
</svg>
