<svg width="20" height="20" viewBox="0 0 20 20" fill="none" xmlns="http://www.w3.org/2000/svg">
<path d="M18.3333 15.8333V18.3333H1.66663V15.8333C1.66663 15.375 2.04163 15 2.49996 15H17.5C17.9583 15 18.3333 15.375 18.3333 15.8333Z" fill="#191716" stroke="#191716" stroke-width="1.5" stroke-miterlimit="10" stroke-linecap="round" stroke-linejoin="round"/>
<path d="M4.66663 14.4993V9.66602H5.33329V14.4993H4.66663Z" fill="#191716" stroke="#191716"/>
<path d="M8 14.4993V9.66602H8.66667V14.4993H8Z" fill="#191716" stroke="#191716"/>
<path d="M11.3334 14.4993V9.66602H12V14.4993H11.3334Z" fill="#191716" stroke="#191716"/>
<path d="M14.6666 14.4993V9.66602H15.3333V14.4993H14.6666Z" fill="#191716" stroke="#191716"/>
<path d="M19.1667 18.459H0.833374C0.803227 18.459 0.771946 18.4467 0.746302 18.4211C0.720658 18.3954 0.708374 18.3641 0.708374 18.334C0.708374 18.3038 0.720658 18.2726 0.746302 18.2469C0.771946 18.2213 0.803227 18.209 0.833374 18.209H19.1667C19.1969 18.209 19.2281 18.2213 19.2538 18.2469C19.2794 18.2726 19.2917 18.3038 19.2917 18.334C19.2917 18.3641 19.2794 18.3954 19.2538 18.4211C19.2281 18.4467 19.1969 18.459 19.1667 18.459Z" fill="#191716" stroke="#191716"/>
<path d="M10.1227 2.25645L17.6226 5.25643C17.6595 5.27118 17.7169 5.31255 17.7665 5.38559C17.8161 5.45854 17.8333 5.527 17.8333 5.56719V8.33385C17.8333 8.51605 17.6822 8.66719 17.5 8.66719H2.49996C2.31777 8.66719 2.16663 8.51605 2.16663 8.33385V5.56719C2.16663 5.527 2.18385 5.45854 2.23339 5.38559C2.28299 5.31255 2.34043 5.27118 2.37732 5.25643L9.87726 2.25645C9.87718 2.25648 9.87724 2.25646 9.87743 2.2564C9.87908 2.25586 9.89046 2.25211 9.91309 2.24853C9.93762 2.24464 9.96758 2.24219 9.99996 2.24219C10.0323 2.24219 10.0623 2.24464 10.0868 2.24853C10.1095 2.25211 10.1208 2.25586 10.1225 2.2564C10.1227 2.25646 10.1227 2.25648 10.1227 2.25645ZM8.24996 5.83385C8.24996 6.80166 9.03215 7.58385 9.99996 7.58385C10.9678 7.58385 11.75 6.80166 11.75 5.83385C11.75 4.86605 10.9678 4.08385 9.99996 4.08385C9.03215 4.08385 8.24996 4.86604 8.24996 5.83385Z" fill="#191716" stroke="#191716"/>
</svg>
