<svg width="20" height="20" viewBox="0 0 20 20" fill="none" xmlns="http://www.w3.org/2000/svg">
<path d="M17.4998 9.79166H2.49984C1.69984 9.79166 1.0415 9.13332 1.0415 8.33332V5.56665C1.0415 4.99998 1.43315 4.42499 1.95815 4.21665L9.45815 1.21667C9.77482 1.09167 10.2249 1.09167 10.5415 1.21667L18.0415 4.21665C18.5665 4.42499 18.9582 5.00832 18.9582 5.56665V8.33332C18.9582 9.13332 18.2998 9.79166 17.4998 9.79166ZM9.99984 2.36668C9.9665 2.36668 9.93319 2.36664 9.91652 2.37497L2.42481 5.375C2.37481 5.4 2.2915 5.50832 2.2915 5.56665V8.33332C2.2915 8.44999 2.38317 8.54166 2.49984 8.54166H17.4998C17.6165 8.54166 17.7082 8.44999 17.7082 8.33332V5.56665C17.7082 5.50832 17.6332 5.4 17.5749 5.375L10.0749 2.37497C10.0582 2.36664 10.0332 2.36668 9.99984 2.36668Z" fill="#556977"/>
<path d="M18.3332 18.9583H1.6665C1.32484 18.9583 1.0415 18.675 1.0415 18.3333V15.8333C1.0415 15.0333 1.69984 14.375 2.49984 14.375H17.4998C18.2998 14.375 18.9582 15.0333 18.9582 15.8333V18.3333C18.9582 18.675 18.6748 18.9583 18.3332 18.9583ZM2.2915 17.7083H17.7082V15.8333C17.7082 15.7167 17.6165 15.625 17.4998 15.625H2.49984C2.38317 15.625 2.2915 15.7167 2.2915 15.8333V17.7083Z" fill="#556977"/>
<path d="M3.3335 15.625C2.99183 15.625 2.7085 15.3417 2.7085 15V9.16669C2.7085 8.82502 2.99183 8.54169 3.3335 8.54169C3.67516 8.54169 3.9585 8.82502 3.9585 9.16669V15C3.9585 15.3417 3.67516 15.625 3.3335 15.625Z" fill="#556977"/>
<path d="M6.6665 15.625C6.32484 15.625 6.0415 15.3417 6.0415 15V9.16669C6.0415 8.82502 6.32484 8.54169 6.6665 8.54169C7.00817 8.54169 7.2915 8.82502 7.2915 9.16669V15C7.2915 15.3417 7.00817 15.625 6.6665 15.625Z" fill="#556977"/>
<path d="M10 15.625C9.65833 15.625 9.375 15.3417 9.375 15V9.16669C9.375 8.82502 9.65833 8.54169 10 8.54169C10.3417 8.54169 10.625 8.82502 10.625 9.16669V15C10.625 15.3417 10.3417 15.625 10 15.625Z" fill="#556977"/>
<path d="M13.3335 15.625C12.9918 15.625 12.7085 15.3417 12.7085 15V9.16669C12.7085 8.82502 12.9918 8.54169 13.3335 8.54169C13.6752 8.54169 13.9585 8.82502 13.9585 9.16669V15C13.9585 15.3417 13.6752 15.625 13.3335 15.625Z" fill="#556977"/>
<path d="M16.6665 15.625C16.3248 15.625 16.0415 15.3417 16.0415 15V9.16669C16.0415 8.82502 16.3248 8.54169 16.6665 8.54169C17.0082 8.54169 17.2915 8.82502 17.2915 9.16669V15C17.2915 15.3417 17.0082 15.625 16.6665 15.625Z" fill="#556977"/>
<path d="M19.1668 18.9583H0.833496C0.491829 18.9583 0.208496 18.675 0.208496 18.3333C0.208496 17.9916 0.491829 17.7083 0.833496 17.7083H19.1668C19.5085 17.7083 19.7918 17.9916 19.7918 18.3333C19.7918 18.675 19.5085 18.9583 19.1668 18.9583Z" fill="#556977"/>
<path d="M10 7.70831C8.96667 7.70831 8.125 6.86665 8.125 5.83331C8.125 4.79998 8.96667 3.95831 10 3.95831C11.0333 3.95831 11.875 4.79998 11.875 5.83331C11.875 6.86665 11.0333 7.70831 10 7.70831ZM10 5.20831C9.65833 5.20831 9.375 5.49165 9.375 5.83331C9.375 6.17498 9.65833 6.45831 10 6.45831C10.3417 6.45831 10.625 6.17498 10.625 5.83331C10.625 5.49165 10.3417 5.20831 10 5.20831Z" fill="#556977"/>
</svg>
