<svg width="20" height="20" viewBox="0 0 20 20" fill="none" xmlns="http://www.w3.org/2000/svg">
<path d="M10.8333 18.3327H4.16663C2.49996 18.3327 1.66663 17.4993 1.66663 15.8327V9.16602C1.66663 7.49935 2.49996 6.66602 4.16663 6.66602H8.33329V15.8327C8.33329 17.4993 9.16663 18.3327 10.8333 18.3327Z" stroke="#556977" stroke-width="1.5" stroke-miterlimit="10" stroke-linecap="round" stroke-linejoin="round"/>
<path d="M8.42495 3.33398C8.35828 3.58398 8.33329 3.85898 8.33329 4.16732V6.66732H4.16663V5.00065C4.16663 4.08398 4.91663 3.33398 5.83329 3.33398H8.42495Z" stroke="#556977" stroke-width="1.5" stroke-miterlimit="10" stroke-linecap="round" stroke-linejoin="round"/>
<path d="M11.6666 6.66602V10.8327" stroke="#556977" stroke-width="1.5" stroke-miterlimit="10" stroke-linecap="round" stroke-linejoin="round"/>
<path d="M15 6.66602V10.8327" stroke="#556977" stroke-width="1.5" stroke-miterlimit="10" stroke-linecap="round" stroke-linejoin="round"/>
<path d="M14.1666 14.166H12.5C12.0416 14.166 11.6666 14.541 11.6666 14.9993V18.3327H15V14.9993C15 14.541 14.625 14.166 14.1666 14.166Z" stroke="#556977" stroke-width="1.5" stroke-miterlimit="10" stroke-linecap="round" stroke-linejoin="round"/>
<path d="M5 10.834V14.1673" stroke="#556977" stroke-width="1.5" stroke-miterlimit="10" stroke-linecap="round" stroke-linejoin="round"/>
<path d="M8.33337 15.8327V4.16602C8.33337 2.49935 9.16671 1.66602 10.8334 1.66602H15.8334C17.5 1.66602 18.3334 2.49935 18.3334 4.16602V15.8327C18.3334 17.4993 17.5 18.3327 15.8334 18.3327H10.8334C9.16671 18.3327 8.33337 17.4993 8.33337 15.8327Z" stroke="#556977" stroke-width="1.5" stroke-miterlimit="10" stroke-linecap="round" stroke-linejoin="round"/>
</svg>
