<svg width="20" height="20" viewBox="0 0 20 20" fill="none" xmlns="http://www.w3.org/2000/svg">
<path d="M2.16675 9.16602C2.16675 8.05882 3.05956 7.16602 4.16675 7.16602H5.41675C6.05727 7.16602 6.58341 7.69216 6.58341 8.33268V16.666C6.58341 17.3065 6.05727 17.8327 5.41675 17.8327H4.16675C3.05956 17.8327 2.16675 16.9399 2.16675 15.8327V9.16602ZM4.37508 15.291C4.99289 15.291 5.50008 14.7838 5.50008 14.166V10.8327C5.50008 10.2149 4.99289 9.70768 4.37508 9.70768C3.75727 9.70768 3.25008 10.2149 3.25008 10.8327V14.166C3.25008 14.7838 3.75727 15.291 4.37508 15.291Z" fill="#292D32" stroke="#191716"/>
<path d="M10.8333 2.16602H15.8333C16.9404 2.16602 17.8333 3.05882 17.8333 4.16602V15.8327C17.8333 16.9399 16.9404 17.8327 15.8333 17.8327H15.4999V14.9993C15.4999 14.2649 14.9011 13.666 14.1666 13.666H12.4999C11.7654 13.666 11.1666 14.2649 11.1666 14.9993V17.8327H10.8333C9.72606 17.8327 8.83325 16.9399 8.83325 15.8327V4.16602C8.83325 3.05882 9.72606 2.16602 10.8333 2.16602ZM11.6666 11.9577C12.2844 11.9577 12.7916 11.4505 12.7916 10.8327V6.66602C12.7916 6.04821 12.2844 5.54102 11.6666 5.54102C11.0488 5.54102 10.5416 6.04821 10.5416 6.66602V10.8327C10.5416 11.4505 11.0488 11.9577 11.6666 11.9577ZM14.9999 11.9577C15.6177 11.9577 16.1249 11.4505 16.1249 10.8327V6.66602C16.1249 6.04821 15.6177 5.54102 14.9999 5.54102C14.3821 5.54102 13.8749 6.04821 13.8749 6.66602V10.8327C13.8749 11.4505 14.3821 11.9577 14.9999 11.9577Z" fill="#292D32" stroke="#191716"/>
</svg>
