<svg width="16" height="15" viewBox="0 0 16 15" fill="none" xmlns="http://www.w3.org/2000/svg">
<path d="M14.6467 11.7207C14.6467 11.9607 14.5934 12.2073 14.48 12.4473C14.3667 12.6873 14.22 12.914 14.0267 13.1273C13.7 13.4873 13.34 13.7473 12.9334 13.914C12.5334 14.0807 12.1 14.1673 11.6334 14.1673C10.9534 14.1673 10.2267 14.0073 9.46004 13.6807C8.69337 13.354 7.92671 12.914 7.16671 12.3607C6.40004 11.8007 5.67337 11.1807 4.98004 10.494C4.29337 9.80065 3.67337 9.07398 3.12004 8.31398C2.57337 7.55398 2.13337 6.79398 1.81337 6.04065C1.49337 5.28065 1.33337 4.55398 1.33337 3.86065C1.33337 3.40732 1.41337 2.97398 1.57337 2.57398C1.73337 2.16732 1.98671 1.79398 2.34004 1.46065C2.76671 1.04065 3.23337 0.833984 3.72671 0.833984C3.91337 0.833984 4.10004 0.873984 4.26671 0.953984C4.44004 1.03398 4.59337 1.15398 4.71337 1.32732L6.26004 3.50732C6.38004 3.67398 6.46671 3.82732 6.52671 3.97398C6.58671 4.11398 6.62004 4.25398 6.62004 4.38065C6.62004 4.54065 6.57337 4.70065 6.48004 4.85398C6.39337 5.00732 6.26671 5.16732 6.10671 5.32732L5.60004 5.85398C5.52671 5.92732 5.49337 6.01398 5.49337 6.12065C5.49337 6.17398 5.50004 6.22065 5.51337 6.27398C5.53337 6.32732 5.55337 6.36732 5.56671 6.40732C5.68671 6.62732 5.89337 6.91398 6.18671 7.26065C6.48671 7.60732 6.80671 7.96065 7.15337 8.31398C7.51337 8.66732 7.86004 8.99398 8.21337 9.29398C8.56004 9.58732 8.84671 9.78732 9.07337 9.90732C9.10671 9.92065 9.14671 9.94065 9.19337 9.96065C9.24671 9.98065 9.30004 9.98732 9.36004 9.98732C9.47337 9.98732 9.56004 9.94732 9.63337 9.87398L10.14 9.37398C10.3067 9.20732 10.4667 9.08065 10.62 9.00065C10.7734 8.90732 10.9267 8.86065 11.0934 8.86065C11.22 8.86065 11.3534 8.88732 11.5 8.94732C11.6467 9.00732 11.8 9.09398 11.9667 9.20732L14.1734 10.774C14.3467 10.894 14.4667 11.034 14.54 11.2007C14.6067 11.3673 14.6467 11.534 14.6467 11.7207Z" stroke="#556977" stroke-width="1.5" stroke-miterlimit="10"/>
</svg>
