<svg width="16" height="17" viewBox="0 0 16 17" fill="none" xmlns="http://www.w3.org/2000/svg">
<path d="M2.03773 3.75968L2.03774 3.75968L2.03878 3.75705C2.1702 3.42302 2.3801 3.11036 2.68327 2.82435L2.68335 2.82443L2.69092 2.81698C3.04212 2.47127 3.38808 2.33398 3.72683 2.33398C3.84348 2.33398 3.95559 2.35921 4.05046 2.40475L4.05044 2.4048L4.0573 2.40796C4.15636 2.45368 4.23737 2.51799 4.3024 2.61192L4.30237 2.61194L4.3057 2.61664L5.85237 4.79664L5.85236 4.79664L5.8544 4.79947C5.95628 4.94098 6.0218 5.06001 6.06406 5.1633L6.06399 5.16333L6.06726 5.17094C6.10777 5.26547 6.12016 5.33782 6.12016 5.38065C6.12016 5.44001 6.10359 5.511 6.05306 5.59401L6.04886 5.60092L6.04488 5.60796C5.98614 5.71188 5.89062 5.83642 5.75328 5.97376L5.75321 5.9737L5.7465 5.98067L5.24254 6.50453C5.07056 6.67866 4.9935 6.89451 4.9935 7.12065C4.9935 7.22135 5.00688 7.30909 5.02842 7.39525L5.03533 7.42288L5.04533 7.44955C5.0584 7.48439 5.07151 7.51532 5.07982 7.53491C5.08066 7.53688 5.08145 7.53874 5.08218 7.54047C5.09084 7.56095 5.09254 7.56563 5.09255 7.56562L5.10656 7.60766L5.12788 7.64674C5.27151 7.91006 5.50296 8.2265 5.80514 8.58362L5.80511 8.58364L5.80874 8.58784C6.11383 8.94038 6.44098 9.30171 6.79659 9.66416L6.79657 9.66417L6.79994 9.66754C6.83761 9.70521 6.87634 9.74209 6.91007 9.77421L6.912 9.77605C6.94782 9.81017 6.97833 9.83926 7.00661 9.86754L7.00658 9.86757L7.01111 9.87198C7.08056 9.93969 7.0807 10.0463 7.01328 10.1138L5.77994 11.3471C5.71773 11.4093 5.61619 11.4163 5.54105 11.3478C5.50234 11.3092 5.46433 11.2729 5.43046 11.2406L5.42873 11.239C5.39179 11.2037 5.35956 11.1729 5.32795 11.1413C4.65903 10.4658 4.05606 9.75898 3.51854 9.02083C2.99048 8.28654 2.57089 7.55991 2.26807 6.84762C1.97519 6.13648 1.8335 5.47559 1.8335 4.86065C1.8335 4.46657 1.90292 4.09671 2.03773 3.75968Z" fill="#292D32" stroke="#191716"/>
<path d="M14.6466 12.7194C14.6466 12.906 14.6132 13.0994 14.5466 13.286C14.5266 13.3394 14.5066 13.3927 14.4799 13.446C14.3666 13.686 14.2199 13.9127 14.0266 14.126C13.6999 14.486 13.3399 14.746 12.9332 14.9127C12.9266 14.9127 12.9199 14.9194 12.9132 14.9194C12.5199 15.0794 12.0932 15.166 11.6332 15.166C10.9532 15.166 10.2266 15.006 9.4599 14.6794C8.69324 14.3527 7.92657 13.9127 7.16657 13.3594C6.90657 13.166 6.64657 12.9727 6.3999 12.766L8.5799 10.586C8.76657 10.726 8.93324 10.8327 9.07324 10.906C9.10657 10.9194 9.14657 10.9394 9.19324 10.9594C9.24657 10.9794 9.2999 10.986 9.3599 10.986C9.47324 10.986 9.5599 10.946 9.63324 10.8727L10.1399 10.3727C10.3066 10.206 10.4666 10.0794 10.6199 9.99938C10.7732 9.90604 10.9266 9.85938 11.0932 9.85938C11.2199 9.85938 11.3532 9.88604 11.4999 9.94604C11.6466 10.006 11.7999 10.0927 11.9666 10.206L14.1732 11.7727C14.3466 11.8927 14.4666 12.0327 14.5399 12.1994C14.6066 12.366 14.6466 12.5327 14.6466 12.7194Z" fill="#292D32"/>
</svg>
