<svg width="20" height="20" viewBox="0 0 20 20" fill="none" xmlns="http://www.w3.org/2000/svg">
<path d="M15.1248 4.37435V4.87435H15.6248H17.0832C17.1133 4.87435 17.1446 4.88663 17.1702 4.91228C17.1959 4.93792 17.2082 4.9692 17.2082 4.99935C17.2082 5.0295 17.1959 5.06078 17.1702 5.08642C17.1446 5.11206 17.1133 5.12435 17.0832 5.12435H15.6248H15.1248V5.62435V7.08268C15.1248 7.11283 15.1126 7.14411 15.0869 7.16975C15.0613 7.1954 15.03 7.20768 14.9998 7.20768C14.9697 7.20768 14.9384 7.1954 14.9128 7.16975C14.8871 7.14411 14.8748 7.11283 14.8748 7.08268V5.62435V5.12435H14.3748H12.9165C12.8864 5.12435 12.8551 5.11206 12.8294 5.08642C12.8038 5.06078 12.7915 5.0295 12.7915 4.99935C12.7915 4.9692 12.8038 4.93792 12.8294 4.91228C12.8551 4.88663 12.8864 4.87435 12.9165 4.87435H14.3748H14.8748V4.37435V2.91602C14.8748 2.88587 14.8871 2.85459 14.9128 2.82894C14.9384 2.8033 14.9697 2.79102 14.9998 2.79102C15.03 2.79102 15.0613 2.8033 15.0869 2.82894C15.1126 2.85459 15.1248 2.88587 15.1248 2.91602V4.37435Z" fill="#292D32" stroke="#191716"/>
<path d="M2.43074 4.02671L2.43075 4.02671L2.43179 4.02408C2.60321 3.58838 2.87644 3.18239 3.26795 2.81305L3.26802 2.81313L3.2756 2.80568C3.73346 2.35497 4.19608 2.16602 4.65817 2.16602C4.82149 2.16602 4.98026 2.20124 5.11681 2.26678L5.11678 2.26683L5.12364 2.27C5.26603 2.33571 5.38538 2.43002 5.48041 2.56729L5.48038 2.56731L5.48371 2.572L7.41705 5.297L7.41704 5.29701L7.41907 5.29983C7.55096 5.48301 7.63814 5.64038 7.6954 5.78033L7.69533 5.78036L7.6986 5.78798C7.75411 5.9175 7.77484 6.02485 7.77484 6.09935C7.77484 6.1987 7.7466 6.3097 7.67274 6.43104L7.66853 6.43795L7.66456 6.44499C7.58415 6.58725 7.45696 6.75178 7.27962 6.92913L7.27955 6.92906L7.27284 6.93604L6.64232 7.59145C6.45193 7.78392 6.3665 8.02151 6.3665 8.27435C6.3665 8.38838 6.38156 8.48778 6.40643 8.58728L6.41334 8.61491L6.42334 8.64158C6.43869 8.68252 6.4541 8.71885 6.46452 8.74344C6.46556 8.74589 6.46655 8.74821 6.46748 8.75042C6.4795 8.77882 6.48253 8.7869 6.48383 8.7908L6.49791 8.83303L6.51922 8.87211C6.69285 9.19042 6.97596 9.57853 7.35148 10.0223L7.35145 10.0223L7.35509 10.0265C7.73517 10.4657 8.14232 10.9154 8.5846 11.3662L8.58458 11.3662L8.58795 11.3696C8.63392 11.4155 8.68137 11.4607 8.72378 11.5011L8.72584 11.5031C8.77041 11.5455 8.80967 11.583 8.84628 11.6196L8.84625 11.6196L8.85079 11.624C8.9869 11.7567 8.98871 11.97 8.85462 12.1041L7.31295 13.6458C7.18593 13.7728 6.98145 13.7801 6.83948 13.6486C6.79145 13.6007 6.7441 13.5555 6.70103 13.5144L6.69924 13.5127C6.65306 13.4686 6.61163 13.429 6.57081 13.3882C5.73029 12.5394 4.97238 11.651 4.29658 10.7229C3.63183 9.79859 3.10224 8.88195 2.71941 7.98132C2.34819 7.08017 2.1665 6.23762 2.1665 5.44935C2.1665 4.94194 2.25593 4.46374 2.43074 4.02671Z" fill="#292D32" stroke="#191716"/>
<path d="M17.6528 15.9589L17.6527 15.9589L17.6479 15.969C17.5261 16.227 17.3697 16.4685 17.1631 16.6966C16.8181 17.0767 16.45 17.3465 16.0454 17.5242H16.0439L15.9533 17.5611C15.5216 17.7367 15.0523 17.8326 14.5417 17.8326C13.7707 17.8326 12.9291 17.6512 12.021 17.2642C11.1016 16.8725 10.1767 16.3426 9.25464 15.6715C9.08194 15.543 8.91308 15.4174 8.74867 15.291L10.7821 13.2576C10.8972 13.3321 11.0068 13.3966 11.1097 13.4505L11.1323 13.4623L11.156 13.4718C11.1636 13.4748 11.1755 13.4801 11.2021 13.4923C11.2042 13.4932 11.2063 13.4942 11.2086 13.4953C11.2313 13.5057 11.2619 13.5197 11.2947 13.5338L11.3053 13.5383L11.3161 13.5424C11.4558 13.5948 11.5863 13.6076 11.7 13.6076C11.9807 13.6076 12.2137 13.5003 12.3938 13.3208L13.0262 12.6968L13.0262 12.6968L13.0286 12.6944C13.2167 12.5063 13.3759 12.3855 13.5063 12.3175L13.5209 12.3099L13.535 12.3013C13.6581 12.2264 13.7609 12.1992 13.8667 12.1992C13.9517 12.1992 14.0542 12.2165 14.1857 12.2703C14.326 12.3277 14.4851 12.4157 14.6731 12.5432L17.4272 14.4986L17.4272 14.4986L17.4321 14.502C17.5812 14.6052 17.6646 14.7093 17.7142 14.8185C17.777 14.9777 17.8083 15.1202 17.8083 15.2742C17.8083 15.4477 17.7774 15.6313 17.7137 15.8109C17.6883 15.8785 17.6722 15.9201 17.6528 15.9589ZM15.9306 17.5728C15.9298 17.5732 15.9307 17.5728 15.9318 17.5722L15.9306 17.5728Z" fill="#292D32" stroke="#191716"/>
</svg>
