<svg width="20" height="20" viewBox="0 0 20 20" fill="none" xmlns="http://www.w3.org/2000/svg">
<path d="M17.8337 6.29232C17.8337 6.56618 17.6075 6.79232 17.3337 6.79232H2.66699C2.39313 6.79232 2.16699 6.56618 2.16699 6.29232V6.28398C2.16699 4.65179 3.4848 3.33398 5.11699 3.33398H14.8753C16.5075 3.33398 17.8337 4.66013 17.8337 6.29232Z" fill="#292D32" stroke="#191716"/>
<path d="M2.16699 13.716V9.54102C2.16699 9.26716 2.39313 9.04102 2.66699 9.04102H17.3337C17.6075 9.04102 17.8337 9.26716 17.8337 9.54102V13.7077C17.8337 15.3399 16.5075 16.666 14.8753 16.666H5.11699C3.4848 16.666 2.16699 15.3482 2.16699 13.716ZM5.00033 14.8743H6.66699C7.13544 14.8743 7.54028 14.5828 7.70866 14.1724C7.87704 14.5828 8.28188 14.8743 8.75033 14.8743H12.0837C12.7015 14.8743 13.2087 14.3672 13.2087 13.7493C13.2087 13.1315 12.7015 12.6243 12.0837 12.6243H8.75033C8.28188 12.6243 7.87704 12.9159 7.70866 13.3263C7.54028 12.9159 7.13544 12.6243 6.66699 12.6243H5.00033C4.38252 12.6243 3.87533 13.1315 3.87533 13.7493C3.87533 14.3672 4.38252 14.8743 5.00033 14.8743Z" fill="#292D32" stroke="#191716"/>
</svg>
