<svg width="20" height="20" viewBox="0 0 20 20" fill="none" xmlns="http://www.w3.org/2000/svg">
<path d="M3.27502 13.8583C3.11668 13.8583 2.95835 13.8 2.83335 13.675C2.59168 13.4333 2.59168 13.0333 2.83335 12.7917L12.7917 2.83335C13.0333 2.59168 13.4333 2.59168 13.675 2.83335C13.9167 3.07502 13.9167 3.47502 13.675 3.71668L3.71668 13.6833C3.60002 13.8 3.43335 13.8583 3.27502 13.8583Z" fill="#556977"/>
<path d="M9.25011 15.8584C9.09178 15.8584 8.93345 15.8001 8.80845 15.6751C8.56678 15.4334 8.56678 15.0334 8.80845 14.7917L9.80845 13.7917C10.0501 13.5501 10.4501 13.5501 10.6918 13.7917C10.9334 14.0334 10.9334 14.4334 10.6918 14.6751L9.69178 15.6751C9.57511 15.7917 9.41678 15.8584 9.25011 15.8584Z" fill="#556977"/>
<path d="M11.4916 13.6167C11.3332 13.6167 11.1749 13.5583 11.0499 13.4333C10.8082 13.1917 10.8082 12.7917 11.0499 12.55L13.0416 10.5583C13.2832 10.3167 13.6832 10.3167 13.9249 10.5583C14.1666 10.8 14.1666 11.2 13.9249 11.4417L11.9332 13.4333C11.8166 13.55 11.6499 13.6167 11.4916 13.6167Z" fill="#556977"/>
<path d="M9.25009 18.9583C8.43343 18.9583 7.61676 18.4583 6.62509 17.4666L2.53342 13.375C0.541758 11.3833 0.550091 10.1 2.55842 8.09164L8.09176 2.5583C10.1001 0.549969 11.3834 0.541636 13.3751 2.5333L17.4668 6.62497C19.4584 8.61664 19.4501 9.89997 17.4418 11.9083L11.9084 17.4416C10.9001 18.45 10.0751 18.9583 9.25009 18.9583ZM10.7501 2.29164C10.3168 2.29164 9.76676 2.64997 8.97509 3.44164L3.44176 8.97497C2.65009 9.76664 2.29176 10.3166 2.29176 10.7416C2.29176 11.175 2.62509 11.7 3.41676 12.4916L7.50843 16.5833C8.30009 17.375 8.81676 17.7083 9.25009 17.7083C9.25009 17.7083 9.25009 17.7083 9.25842 17.7083C9.69176 17.7083 10.2334 17.35 11.0251 16.5583L16.5584 11.025C17.3501 10.2333 17.7084 9.6833 17.7084 9.2583C17.7084 8.82497 17.3751 8.29997 16.5834 7.5083L12.4918 3.41664C11.7084 2.62497 11.1834 2.29164 10.7501 2.29164Z" fill="#556977"/>
<path d="M18.3334 18.9584H1.66675C1.32508 18.9584 1.04175 18.675 1.04175 18.3334C1.04175 17.9917 1.32508 17.7084 1.66675 17.7084H18.3334C18.6751 17.7084 18.9584 17.9917 18.9584 18.3334C18.9584 18.675 18.6751 18.9584 18.3334 18.9584Z" fill="#556977"/>
</svg>
