<svg width="20" height="20" viewBox="0 0 20 20" fill="none" xmlns="http://www.w3.org/2000/svg">
<path d="M5.83334 8.95768H4.16667C2.15 8.95768 1.04167 7.84935 1.04167 5.83268V4.16602C1.04167 2.14935 2.15 1.04102 4.16667 1.04102H5.83334C7.85001 1.04102 8.95834 2.14935 8.95834 4.16602V5.83268C8.95834 7.84935 7.85001 8.95768 5.83334 8.95768ZM4.16667 2.29102C2.85001 2.29102 2.29167 2.84935 2.29167 4.16602V5.83268C2.29167 7.14935 2.85001 7.70768 4.16667 7.70768H5.83334C7.15 7.70768 7.70834 7.14935 7.70834 5.83268V4.16602C7.70834 2.84935 7.15 2.29102 5.83334 2.29102H4.16667Z" fill="#556977"/>
<path d="M15.8333 8.95768H14.1667C12.15 8.95768 11.0417 7.84935 11.0417 5.83268V4.16602C11.0417 2.14935 12.15 1.04102 14.1667 1.04102H15.8333C17.85 1.04102 18.9583 2.14935 18.9583 4.16602V5.83268C18.9583 7.84935 17.85 8.95768 15.8333 8.95768ZM14.1667 2.29102C12.85 2.29102 12.2917 2.84935 12.2917 4.16602V5.83268C12.2917 7.14935 12.85 7.70768 14.1667 7.70768H15.8333C17.15 7.70768 17.7083 7.14935 17.7083 5.83268V4.16602C17.7083 2.84935 17.15 2.29102 15.8333 2.29102H14.1667Z" fill="#556977"/>
<path d="M15.8333 18.9577H14.1667C12.15 18.9577 11.0417 17.8494 11.0417 15.8327V14.166C11.0417 12.1493 12.15 11.041 14.1667 11.041H15.8333C17.85 11.041 18.9583 12.1493 18.9583 14.166V15.8327C18.9583 17.8494 17.85 18.9577 15.8333 18.9577ZM14.1667 12.291C12.85 12.291 12.2917 12.8493 12.2917 14.166V15.8327C12.2917 17.1494 12.85 17.7077 14.1667 17.7077H15.8333C17.15 17.7077 17.7083 17.1494 17.7083 15.8327V14.166C17.7083 12.8493 17.15 12.291 15.8333 12.291H14.1667Z" fill="#556977"/>
<path d="M5.83334 18.9577H4.16667C2.15 18.9577 1.04167 17.8494 1.04167 15.8327V14.166C1.04167 12.1493 2.15 11.041 4.16667 11.041H5.83334C7.85001 11.041 8.95834 12.1493 8.95834 14.166V15.8327C8.95834 17.8494 7.85001 18.9577 5.83334 18.9577ZM4.16667 12.291C2.85001 12.291 2.29167 12.8493 2.29167 14.166V15.8327C2.29167 17.1494 2.85001 17.7077 4.16667 17.7077H5.83334C7.15 17.7077 7.70834 17.1494 7.70834 15.8327V14.166C7.70834 12.8493 7.15 12.291 5.83334 12.291H4.16667Z" fill="#556977"/>
</svg>
