<svg width="20" height="20" viewBox="0 0 20 20" fill="none" xmlns="http://www.w3.org/2000/svg">
<path d="M4.16675 8.33329H5.83341C7.50008 8.33329 8.33341 7.49996 8.33341 5.83329V4.16663C8.33341 2.49996 7.50008 1.66663 5.83341 1.66663H4.16675C2.50008 1.66663 1.66675 2.49996 1.66675 4.16663V5.83329C1.66675 7.49996 2.50008 8.33329 4.16675 8.33329Z" stroke="#2085C9" stroke-width="1.5" stroke-miterlimit="10" stroke-linecap="round" stroke-linejoin="round"/>
<path d="M14.1667 8.33329H15.8334C17.5001 8.33329 18.3334 7.49996 18.3334 5.83329V4.16663C18.3334 2.49996 17.5001 1.66663 15.8334 1.66663H14.1667C12.5001 1.66663 11.6667 2.49996 11.6667 4.16663V5.83329C11.6667 7.49996 12.5001 8.33329 14.1667 8.33329Z" stroke="#2085C9" stroke-width="1.5" stroke-miterlimit="10" stroke-linecap="round" stroke-linejoin="round"/>
<path d="M14.1667 18.3333H15.8334C17.5001 18.3333 18.3334 17.5 18.3334 15.8333V14.1666C18.3334 12.5 17.5001 11.6666 15.8334 11.6666H14.1667C12.5001 11.6666 11.6667 12.5 11.6667 14.1666V15.8333C11.6667 17.5 12.5001 18.3333 14.1667 18.3333Z" stroke="#2085C9" stroke-width="1.5" stroke-miterlimit="10" stroke-linecap="round" stroke-linejoin="round"/>
<path d="M4.16675 18.3333H5.83341C7.50008 18.3333 8.33341 17.5 8.33341 15.8333V14.1666C8.33341 12.5 7.50008 11.6666 5.83341 11.6666H4.16675C2.50008 11.6666 1.66675 12.5 1.66675 14.1666V15.8333C1.66675 17.5 2.50008 18.3333 4.16675 18.3333Z" stroke="#2085C9" stroke-width="1.5" stroke-miterlimit="10" stroke-linecap="round" stroke-linejoin="round"/>
</svg>
