<svg width="20" height="20" viewBox="0 0 20 20" fill="none" xmlns="http://www.w3.org/2000/svg">
<path d="M11.1667 12.7676H11.1333V11.595L11.3099 11.6562C11.5251 11.7322 11.5685 11.7682 11.5881 11.7924C11.6001 11.8071 11.6583 11.8864 11.6583 12.2009C11.6583 12.5428 11.3987 12.7676 11.1667 12.7676Z" fill="#292D32" stroke="#191716"/>
<path d="M2.16704 9.94052C2.15138 5.61762 5.65228 2.0999 9.97675 2.084C14.3011 2.07641 17.8181 5.57045 17.8337 9.89414C17.8494 14.2172 14.3482 17.735 10.0236 17.7507C5.70052 17.7663 2.18271 14.2652 2.16704 9.94052ZM13.9087 12.2007C13.9087 11.3483 13.655 10.731 13.2626 10.2923C12.8814 9.86608 12.4089 9.65359 12.0498 9.52904L11.1254 9.19846V7.26706C11.4115 7.36242 11.6504 7.65657 11.6504 8.05066C11.6504 8.66847 12.1576 9.17566 12.7754 9.17566C13.3932 9.17566 13.9004 8.66847 13.9004 8.05066C13.9004 6.4431 12.6896 5.09718 11.1253 4.99078C11.12 4.37745 10.6149 3.87566 10.0004 3.87566C9.38814 3.87566 8.88453 4.37376 8.8755 4.984H8.83371C7.31006 4.984 6.09205 6.25558 6.09205 7.80066C6.09205 8.65302 6.34578 9.27034 6.73812 9.70899C7.11938 10.1353 7.59189 10.3478 7.95104 10.4723L8.87538 10.8029V12.7343C8.58923 12.6389 8.35038 12.3448 8.35038 11.9507C8.35038 11.3329 7.84319 10.8257 7.22538 10.8257C6.60757 10.8257 6.10038 11.3329 6.10038 11.9507C6.10038 13.5582 7.31112 14.9041 8.87542 15.0106C8.8808 15.6239 9.38587 16.1257 10.0004 16.1257C10.6126 16.1257 11.1162 15.6276 11.1253 15.0173H11.167C12.6907 15.0173 13.9087 13.7457 13.9087 12.2007Z" fill="#292D32" stroke="#191716"/>
<path d="M8.69804 8.35213C8.48288 8.27611 8.43949 8.24011 8.41987 8.21598C8.40786 8.2012 8.34961 8.12197 8.34961 7.80742C8.34961 7.44886 8.60857 7.23242 8.83294 7.23242H8.87461V8.41332L8.69804 8.35213Z" fill="#292D32" stroke="#191716"/>
</svg>
