<svg width="68" height="68" viewBox="0 0 68 68" fill="none" xmlns="http://www.w3.org/2000/svg">
<circle cx="34" cy="34" r="34" fill="#E9F3FA"/>
<path d="M34.0996 42.7503C33.4163 42.7503 32.8496 42.1837 32.8496 41.5003V33.167C32.8496 32.4837 33.4163 31.917 34.0996 31.917C34.7829 31.917 35.3496 32.4837 35.3496 33.167V41.5003C35.3496 42.1837 34.7829 42.7503 34.0996 42.7503Z" fill="#2085C9"/>
<path d="M38.1663 38.583H29.833C29.1497 38.583 28.583 38.0163 28.583 37.333C28.583 36.6497 29.1497 36.083 29.833 36.083H38.1663C38.8497 36.083 39.4163 36.6497 39.4163 37.333C39.4163 38.0163 38.8497 38.583 38.1663 38.583Z" fill="#2085C9"/>
<path d="M42.333 51.9163H25.6663C18.3163 51.9163 16.083 49.683 16.083 42.333V25.6663C16.083 18.3163 18.3163 16.083 25.6663 16.083H28.1663C31.083 16.083 31.9997 17.033 33.1663 18.583L35.6663 21.9163C36.2163 22.6497 36.2997 22.7497 37.333 22.7497H42.333C49.683 22.7497 51.9163 24.983 51.9163 32.333V42.333C51.9163 49.683 49.683 51.9163 42.333 51.9163ZM25.6663 18.583C19.7163 18.583 18.583 19.7163 18.583 25.6663V42.333C18.583 48.283 19.7163 49.4163 25.6663 49.4163H42.333C48.283 49.4163 49.4163 48.283 49.4163 42.333V32.333C49.4163 26.383 48.283 25.2497 42.333 25.2497H37.333C35.1997 25.2497 34.4997 24.5163 33.6663 23.4163L31.1663 20.083C30.2997 18.933 30.0497 18.583 28.1663 18.583H25.6663V18.583Z" fill="#2085C9"/>
</svg>
