<svg width="20" height="20" viewBox="0 0 20 20" fill="none" xmlns="http://www.w3.org/2000/svg">
<path d="M6.6665 18.5999C6.43317 18.5999 6.19149 18.5416 5.97482 18.4249C5.49982 18.1749 5.20817 17.6749 5.20817 17.1416V15.9583C2.6915 15.6999 1.0415 13.8499 1.0415 11.1999V6.19993C1.0415 3.33326 2.9665 1.40826 5.83317 1.40826H14.1665C17.0332 1.40826 18.9582 3.33326 18.9582 6.19993V11.1999C18.9582 14.0665 17.0332 15.9915 14.1665 15.9915H11.0248L7.47481 18.3583C7.23315 18.5166 6.94984 18.5999 6.6665 18.5999ZM5.83317 2.64992C3.68317 2.64992 2.2915 4.04159 2.2915 6.19159V11.1916C2.2915 13.3416 3.68317 14.7333 5.83317 14.7333C6.17484 14.7333 6.45817 15.0166 6.45817 15.3583V17.1333C6.45817 17.2416 6.52484 17.2916 6.56651 17.3166C6.60817 17.3416 6.69152 17.3666 6.78318 17.3083L10.4915 14.8416C10.5915 14.775 10.7165 14.7333 10.8415 14.7333H14.1748C16.3248 14.7333 17.7165 13.3416 17.7165 11.1916V6.19159C17.7165 4.04159 16.3248 2.64992 14.1748 2.64992H5.83317Z" fill="#2085C9"/>
<path d="M10 10.0917C9.65834 10.0917 9.37501 9.80834 9.37501 9.46667V9.29171C9.37501 8.32504 10.0833 7.85003 10.35 7.6667C10.6583 7.45836 10.7583 7.3167 10.7583 7.10004C10.7583 6.68337 10.4167 6.34167 10 6.34167C9.58334 6.34167 9.2417 6.68337 9.2417 7.10004C9.2417 7.4417 8.95837 7.72504 8.6167 7.72504C8.27503 7.72504 7.9917 7.4417 7.9917 7.10004C7.9917 5.9917 8.89168 5.09167 10 5.09167C11.1083 5.09167 12.0083 5.9917 12.0083 7.10004C12.0083 8.05004 11.3084 8.52502 11.05 8.70002C10.725 8.91669 10.625 9.05837 10.625 9.29171V9.46667C10.625 9.81667 10.3417 10.0917 10 10.0917Z" fill="#2085C9"/>
<path d="M10 12.1666C9.65 12.1666 9.375 11.8833 9.375 11.5416C9.375 11.2 9.65833 10.9166 10 10.9166C10.3417 10.9166 10.625 11.2 10.625 11.5416C10.625 11.8833 10.35 12.1666 10 12.1666Z" fill="#2085C9"/>
</svg>
