<svg width="20" height="20" viewBox="0 0 20 20" fill="none" xmlns="http://www.w3.org/2000/svg">
<path d="M14.1667 17.2917H10.0001C9.65841 17.2917 9.37508 17.0084 9.37508 16.6667C9.37508 16.325 9.65841 16.0417 10.0001 16.0417H14.1667C16.5501 16.0417 17.7084 14.8834 17.7084 12.5V7.50004C17.7084 5.11671 16.5501 3.95837 14.1667 3.95837H5.83342C3.45008 3.95837 2.29175 5.11671 2.29175 7.50004V9.16671C2.29175 9.50837 2.00841 9.79171 1.66675 9.79171C1.32508 9.79171 1.04175 9.50837 1.04175 9.16671V7.50004C1.04175 4.45837 2.79175 2.70837 5.83342 2.70837H14.1667C17.2084 2.70837 18.9584 4.45837 18.9584 7.50004V12.5C18.9584 15.5417 17.2084 17.2917 14.1667 17.2917Z" fill="#2085C9"/>
<path d="M10.0001 12.7083C8.50841 12.7083 7.29175 11.4916 7.29175 9.99996C7.29175 8.50829 8.50841 7.29163 10.0001 7.29163C11.4917 7.29163 12.7084 8.50829 12.7084 9.99996C12.7084 11.4916 11.4917 12.7083 10.0001 12.7083ZM10.0001 8.54163C9.20008 8.54163 8.54175 9.19996 8.54175 9.99996C8.54175 10.8 9.20008 11.4583 10.0001 11.4583C10.8001 11.4583 11.4584 10.8 11.4584 9.99996C11.4584 9.19996 10.8001 8.54163 10.0001 8.54163Z" fill="#2085C9"/>
<path d="M15.4167 12.7083C15.0751 12.7083 14.7917 12.425 14.7917 12.0833V7.91663C14.7917 7.57496 15.0751 7.29163 15.4167 7.29163C15.7584 7.29163 16.0417 7.57496 16.0417 7.91663V12.0833C16.0417 12.425 15.7584 12.7083 15.4167 12.7083Z" fill="#2085C9"/>
<path d="M7.08341 15.575C6.74175 15.575 6.45841 15.2916 6.45841 14.95V13.8833C6.45841 13.6999 6.30844 13.5416 6.11677 13.5416H1.66675C1.32508 13.5416 1.04175 13.2583 1.04175 12.9166C1.04175 12.575 1.32508 12.2916 1.66675 12.2916H6.11677C6.99177 12.2916 7.70841 13.0083 7.70841 13.8833V14.95C7.70841 15.2916 7.42508 15.575 7.08341 15.575Z" fill="#2085C9"/>
<path d="M2.68328 14.5583C2.52495 14.5583 2.36664 14.5 2.24164 14.375L1.22495 13.3584C0.983285 13.1167 0.983285 12.7167 1.22495 12.475L2.24164 11.4583C2.48331 11.2167 2.88331 11.2167 3.12498 11.4583C3.36664 11.7 3.36664 12.1 3.12498 12.3417L2.54997 12.9167L3.12498 13.4917C3.36664 13.7334 3.36664 14.1334 3.12498 14.375C2.99998 14.5 2.84162 14.5583 2.68328 14.5583Z" fill="#2085C9"/>
<path d="M7.08341 17.9418H2.63339C1.75839 17.9418 1.04175 17.2251 1.04175 16.3501V15.2834C1.04175 14.9418 1.32508 14.6584 1.66675 14.6584C2.00841 14.6584 2.29175 14.9418 2.29175 15.2834V16.3501C2.29175 16.5334 2.44173 16.6918 2.63339 16.6918H7.08341C7.42508 16.6918 7.70841 16.9751 7.70841 17.3168C7.70841 17.6584 7.42508 17.9418 7.08341 17.9418Z" fill="#2085C9"/>
<path d="M6.06654 18.9584C5.90821 18.9584 5.74985 18.9 5.62485 18.775C5.38319 18.5334 5.38319 18.1333 5.62485 17.8917L6.19986 17.3167L5.62485 16.7417C5.38319 16.5 5.38319 16.1 5.62485 15.8584C5.86652 15.6167 6.26652 15.6167 6.50818 15.8584L7.52488 16.875C7.76654 17.1167 7.76654 17.5167 7.52488 17.7583L6.50818 18.775C6.39152 18.9 6.22488 18.9584 6.06654 18.9584Z" fill="#2085C9"/>
</svg>
