<svg width="16" height="17" viewBox="0 0 16 17" fill="none" xmlns="http://www.w3.org/2000/svg">
<path d="M14.6666 4.50065V6.11398C14.6666 7.16732 13.9999 7.83398 12.9466 7.83398H10.6666V3.17398C10.6666 2.43398 11.2733 1.83398 12.0133 1.83398C12.74 1.84065 13.4066 2.13398 13.8866 2.61398C14.3666 3.10065 14.6666 3.76732 14.6666 4.50065Z" stroke="#556977" stroke-width="1.5" stroke-miterlimit="10" stroke-linecap="round" stroke-linejoin="round"/>
<path d="M1.33337 5.16732V14.5007C1.33337 15.054 1.96002 15.3673 2.40002 15.034L3.54004 14.1807C3.80671 13.9807 4.18004 14.0073 4.42004 14.2473L5.52669 15.3607C5.78669 15.6207 6.21339 15.6207 6.47339 15.3607L7.59338 14.2407C7.82672 14.0073 8.20004 13.9807 8.46004 14.1807L9.60006 15.034C10.0401 15.3607 10.6667 15.0473 10.6667 14.5007V3.16732C10.6667 2.43398 11.2667 1.83398 12 1.83398H4.66671H4.00004C2.00004 1.83398 1.33337 3.02732 1.33337 4.50065V5.16732Z" stroke="#556977" stroke-width="1.5" stroke-miterlimit="10" stroke-linecap="round" stroke-linejoin="round"/>
</svg>
