<svg width="16" height="17" viewBox="0 0 16 17" fill="none" xmlns="http://www.w3.org/2000/svg">
<path d="M2.10053 14.6337L2.09823 14.6354C1.99042 14.7171 1.8335 14.6445 1.8335 14.5007V5.16732V4.50065C1.8335 3.82923 1.98661 3.29902 2.29526 2.94161C2.59207 2.5979 3.10252 2.33398 4.00016 2.33398H4.66683H10.368C10.2394 2.58427 10.1668 2.86761 10.1668 3.16732V14.5007C10.1668 14.6326 10.0117 14.7161 9.8988 14.633C9.8986 14.6328 9.89841 14.6327 9.89821 14.6325L8.76201 13.782C8.29967 13.4288 7.64688 13.4802 7.23994 13.8871L6.11994 15.0071C6.05534 15.0717 5.94559 15.0718 5.8808 15.0075C5.88066 15.0074 5.88052 15.0072 5.88038 15.0071L4.77478 13.8948L4.77372 13.8938C4.35988 13.4799 3.70827 13.4296 3.24016 13.7807L2.10054 14.6337L2.10053 14.6337Z" fill="#292D32" stroke="#191716"/>
<path d="M11.1665 3.17398C11.1665 2.89742 11.3002 2.65204 11.5065 2.49897V2.49962C11.3004 2.65291 11.1665 2.89825 11.1665 3.17398ZM14.1665 4.50065C14.1665 4.01395 14.0035 3.54908 13.7055 3.16481C13.9945 3.53686 14.1665 4.00049 14.1665 4.50065ZM13.848 7.01543C13.7691 7.09433 13.6715 7.16313 13.5538 7.2164C13.6598 7.16768 13.7597 7.10098 13.8488 7.01129C13.9343 6.9252 13.9985 6.82924 14.0459 6.72785C13.9931 6.84262 13.9254 6.93802 13.848 7.01543Z" fill="#292D32" stroke="#191716"/>
</svg>
