<svg width="20" height="20" viewBox="0 0 20 20" fill="none" xmlns="http://www.w3.org/2000/svg">
<path d="M16.0351 8.25849L16.0351 8.25845L16.0295 8.26257L6.8629 14.9792C6.86287 14.9792 6.86284 14.9792 6.86281 14.9792C6.44607 15.2844 5.88068 15.2814 5.47682 14.9756L5.475 14.9742L4.27598 14.075C4.27583 14.0748 4.27568 14.0747 4.27552 14.0746C4.08276 13.9291 3.88135 13.6751 3.72742 13.3673C3.57331 13.059 3.49167 12.7466 3.49167 12.5076V5.79922C3.49167 5.45464 3.62702 5.06055 3.8701 4.7104C4.1132 4.36023 4.43483 4.09609 4.75743 3.97626L4.75743 3.97627L4.7588 3.97575L9.31571 2.26795C9.48153 2.20711 9.72887 2.16797 10 2.16797C10.2711 2.16797 10.5185 2.20711 10.6843 2.26796C10.6847 2.2681 10.6851 2.26825 10.6855 2.26839L15.2412 3.97575L15.2426 3.97626C15.5652 4.09609 15.8868 4.36023 16.1299 4.7104C16.373 5.06055 16.5083 5.45464 16.5083 5.79922V7.32422C16.5083 7.70113 16.3323 8.04703 16.0351 8.25849Z" fill="#292D32" stroke="#191716"/>
<path d="M15.6833 10.2838C16.2333 9.88384 17.0083 10.2755 17.0083 10.9588V12.5255C17.0083 13.2005 16.5667 14.0755 16.025 14.4838L11.4667 17.8922C11.0667 18.1838 10.5333 18.3338 10 18.3338C9.46667 18.3338 8.93334 18.1838 8.53334 17.8838L7.84167 17.3672C7.39167 17.0338 7.39167 16.3588 7.85 16.0255L15.6833 10.2838Z" fill="#292D32"/>
</svg>
