<svg width="20" height="20" viewBox="0 0 20 20" fill="none" xmlns="http://www.w3.org/2000/svg">
<path d="M12.25 18.9583H7.74997C3.6333 18.9583 1.8833 17.2 1.8833 13.0916V9.34998C1.8833 9.00831 2.16663 8.72498 2.5083 8.72498C2.84997 8.72498 3.1333 9.00831 3.1333 9.34998V13.0916C3.1333 16.5 4.34163 17.7083 7.74997 17.7083H12.2416C15.65 17.7083 16.8583 16.5 16.8583 13.0916V9.34998C16.8583 9.00831 17.1416 8.72498 17.4833 8.72498C17.825 8.72498 18.1083 9.00831 18.1083 9.34998V13.0916C18.1166 17.2 16.3583 18.9583 12.25 18.9583Z" fill="#556977"/>
<path d="M10.0002 10.625C9.0835 10.625 8.25016 10.2667 7.6585 9.60835C7.06683 8.95002 6.79183 8.09169 6.8835 7.17502L7.44183 1.60835C7.47516 1.29169 7.74183 1.04169 8.06683 1.04169H11.9585C12.2835 1.04169 12.5502 1.28335 12.5835 1.60835L13.1418 7.17502C13.2335 8.09169 12.9585 8.95002 12.3668 9.60835C11.7502 10.2667 10.9168 10.625 10.0002 10.625ZM8.62516 2.29169L8.12516 7.30002C8.06683 7.85835 8.2335 8.38335 8.5835 8.76669C9.29183 9.55002 10.7085 9.55002 11.4168 8.76669C11.7668 8.37502 11.9335 7.85002 11.8752 7.30002L11.3752 2.29169H8.62516Z" fill="#556977"/>
<path d="M15.2585 10.625C13.5668 10.625 12.0585 9.25835 11.8835 7.57502L11.3002 1.73335C11.2835 1.55835 11.3418 1.38335 11.4585 1.25002C11.5752 1.11669 11.7418 1.04169 11.9252 1.04169H14.4668C16.9168 1.04169 18.0585 2.06669 18.4002 4.58335L18.6335 6.90002C18.7335 7.88335 18.4335 8.81669 17.7918 9.52502C17.1502 10.2334 16.2502 10.625 15.2585 10.625ZM12.6168 2.29169L13.1335 7.45002C13.2418 8.49169 14.2085 9.37502 15.2585 9.37502C15.8918 9.37502 16.4585 9.13335 16.8668 8.69169C17.2668 8.25002 17.4502 7.65835 17.3918 7.02502L17.1585 4.73335C16.9002 2.85002 16.2918 2.29169 14.4668 2.29169H12.6168Z" fill="#556977"/>
<path d="M4.70002 10.625C3.70835 10.625 2.80835 10.2334 2.16668 9.52502C1.52502 8.81669 1.22502 7.88335 1.32502 6.90002L1.55002 4.60835C1.90002 2.06669 3.04168 1.04169 5.49168 1.04169H8.03335C8.20835 1.04169 8.37502 1.11669 8.50002 1.25002C8.62502 1.38335 8.67502 1.55835 8.65835 1.73335L8.07502 7.57502C7.90002 9.25835 6.39168 10.625 4.70002 10.625ZM5.49168 2.29169C3.66668 2.29169 3.05835 2.84169 2.79168 4.75002L2.56668 7.02502C2.50002 7.65835 2.69168 8.25002 3.09168 8.69169C3.49168 9.13335 4.05835 9.37502 4.70002 9.37502C5.75002 9.37502 6.72502 8.49169 6.82502 7.45002L7.34168 2.29169H5.49168Z" fill="#556977"/>
<path d="M12.0832 18.9584H7.9165C7.57484 18.9584 7.2915 18.675 7.2915 18.3334V16.25C7.2915 14.5 8.24984 13.5417 9.99984 13.5417C11.7498 13.5417 12.7082 14.5 12.7082 16.25V18.3334C12.7082 18.675 12.4248 18.9584 12.0832 18.9584ZM8.5415 17.7084H11.4582V16.25C11.4582 15.2 11.0498 14.7917 9.99984 14.7917C8.94984 14.7917 8.5415 15.2 8.5415 16.25V17.7084Z" fill="#556977"/>
</svg>
