<svg width="20" height="20" viewBox="0 0 20 20" fill="none" xmlns="http://www.w3.org/2000/svg">
<path d="M5.2551 16.0541L5.24884 16.0604L5.24281 16.0669C4.90265 16.432 4.60473 16.645 4.36763 16.7473C4.13543 16.8476 3.99254 16.8309 3.90749 16.7943C3.81878 16.7561 3.69732 16.6548 3.59312 16.3993C3.48825 16.1422 3.41699 15.7632 3.41699 15.2493V5.86602C3.41699 4.17922 3.62595 3.32025 4.06754 2.84823C4.49803 2.38807 5.27633 2.16602 6.85033 2.16602H13.1503C14.7245 2.16602 15.5024 2.38816 15.9318 2.84791C16.3721 3.31943 16.5795 4.17792 16.5753 5.86478V5.86602V15.241C16.5753 15.7553 16.5045 16.1345 16.4001 16.3918C16.2963 16.6475 16.1754 16.7482 16.0876 16.7861C16.0034 16.8224 15.861 16.8394 15.628 16.7389C15.3903 16.6364 15.0913 16.4233 14.7491 16.058C14.3134 15.5908 13.7414 15.3561 13.1627 15.3876C12.5841 15.4191 12.0411 15.7145 11.6587 16.2243L11.6583 16.2248L10.8183 17.3476C10.8181 17.3479 10.8178 17.3483 10.8175 17.3486C10.5604 17.6877 10.2587 17.8181 9.99616 17.8181C9.73363 17.8181 9.43189 17.6877 9.17477 17.3486C9.17451 17.3483 9.17424 17.3479 9.17398 17.3476L8.33417 16.225C8.33412 16.225 8.33407 16.2249 8.33402 16.2248C7.55641 15.1846 6.15332 15.1076 5.25851 16.0507L5.2551 16.0541ZM7.70866 9.45768H12.292C12.9098 9.45768 13.417 8.95049 13.417 8.33268C13.417 7.71487 12.9098 7.20768 12.292 7.20768H7.70866C7.09085 7.20768 6.58366 7.71487 6.58366 8.33268C6.58366 8.95049 7.09085 9.45768 7.70866 9.45768Z" fill="#292D32" stroke="#191716"/>
</svg>
